<svg xmlns="http://www.w3.org/2000/svg" xmlns:svg="http://www.w3.org/2000/svg" id="svg1" width="114mm" height="124mm" version="1.1" viewBox="0 0 114 124"><defs id="defs1"><linearGradient id="swatch1"><stop style="stop-color:#000;stop-opacity:1" id="stop1" offset="0"/></linearGradient></defs><g id="layer4"><circle style="display:inline;mix-blend-mode:lighten;fill:#fff;fill-opacity:1;stroke:#000;stroke-width:3;stroke-dasharray:none;stroke-opacity:1" id="path1-8-6" cx="87.991" cy="-92.304" r="3.8" transform="rotate(90)"/><rect style="display:inline;fill:#000;fill-opacity:1;fill-rule:evenodd;stroke-width:.261316" id="rect1-8-5" width="4" height="21.948" x="60.645" y="-59.343" transform="scale(1,-1)"/><rect style="display:inline;fill:#000;fill-opacity:1;fill-rule:evenodd;stroke-width:0;stroke-dasharray:none" id="rect1-8-5-0" width="4" height="21.948" x="85.052" y="-59.343" transform="scale(1,-1)"/><rect style="fill:#000;fill-opacity:1;fill-rule:evenodd;stroke-width:.374177" id="rect1-3" width="4" height="45" x="24.926" y="-110.491" transform="scale(1,-1)"/><rect style="fill:#000;fill-opacity:1;fill-rule:evenodd;stroke-width:.374177" id="rect1-8-1" width="4" height="45" x="49.428" y="-110.491" transform="scale(1,-1)"/><rect style="fill:#000;fill-opacity:1;fill-rule:evenodd;stroke-width:.374177" id="rect1" width="4" height="45" x="24.926" y="-59.344" transform="scale(1,-1)"/><rect style="fill:#000;fill-opacity:1;fill-rule:evenodd;stroke-width:1.78898;stroke-dasharray:none" id="rect1-8" width="4" height="45" x="49.428" y="-59.343" transform="scale(1,-1)"/><rect style="display:inline;fill:#000;fill-opacity:1;fill-rule:evenodd;stroke-width:.586293" id="rect1-8-5-3" width="4" height="12.5" x="72.786" y="50.917" transform="matrix(0,1,1,0,0,0)"/><path id="rect3-1-9" style="display:inline;mix-blend-mode:lighten;fill:#fff;fill-opacity:1;stroke:#000;stroke-width:3.92291;stroke-dasharray:none" d="M 70.276121,108.52979 H 62.606035 V 67.452681 h 7.670086"/><rect style="display:inline;fill:#000;fill-opacity:1;fill-rule:evenodd;stroke-width:.587484" id="rect1-8-5-0-8" width="4" height="12.551" x="98.962" y="50.892" transform="matrix(0,1,1,0,0,0)"/><path style="display:inline;mix-blend-mode:lighten;fill:#fff;fill-opacity:1;stroke:#000;stroke-width:3.90191;stroke-dasharray:none;stroke-opacity:1" id="path2-6-1" d="M 67.453695,-70.308434 A 20.537249,16.814507 0 0 1 87.990944,-87.12294 20.537249,16.814507 0 0 1 108.52819,-70.308434" transform="rotate(90)"/><circle style="display:inline;mix-blend-mode:lighten;fill:#fff;fill-opacity:1;stroke:#000;stroke-width:3;stroke-dasharray:none;stroke-opacity:1" id="path1-8" cx="74.855" cy="9.697" r="4"/><path id="rect3-1" style="display:inline;mix-blend-mode:lighten;fill:#fff;fill-opacity:1;stroke:#000;stroke-width:4;stroke-dasharray:none" d="M 87.051822,24.716668 V 36.936459 H 62.644578 V 24.716668"/><path style="display:inline;mix-blend-mode:lighten;fill:#fff;fill-opacity:1;stroke:#000;stroke-width:4;stroke-dasharray:none;stroke-opacity:1" id="path2-6" d="M 62.657607,25.175873 A 12.197106,9.7781448 0 0 1 74.854713,15.397728 12.197106,9.7781448 0 0 1 87.05182,25.175873"/><rect style="fill:#000;fill-opacity:1;fill-rule:evenodd;stroke-width:.398618" id="rect1-5" width="4" height="49.453" x="14.257" y="-77.793" transform="matrix(0.81596508,-0.57810119,-0.49050448,-0.87143867,0,0)"/><rect style="fill:#000;fill-opacity:1;fill-rule:evenodd;stroke-width:.398618" id="rect1-5-5" width="4" height="49.453" x="-10.966" y="-119.751" transform="matrix(0.81596508,-0.57810119,-0.49050448,-0.87143867,0,0)"/></g></svg>