<svg xmlns="http://www.w3.org/2000/svg" xmlns:svg="http://www.w3.org/2000/svg" id="svg1" width="114mm" height="124mm" version="1.1" viewBox="0 0 114 124"><defs id="defs1"><linearGradient id="swatch1"><stop style="stop-color:#000;stop-opacity:1" id="stop1" offset="0"/></linearGradient></defs><g id="layer4"><circle style="display:inline;mix-blend-mode:lighten;fill:#fff;fill-opacity:1;stroke:#000;stroke-width:3;stroke-dasharray:none;stroke-opacity:1" id="path1-8-6" cx="87.991" cy="-92.304" r="3.8" transform="rotate(90)"/><rect style="display:inline;fill:#000;fill-opacity:1;fill-rule:evenodd;stroke-width:.261316" id="rect1-8-5" width="4" height="21.948" x="60.645" y="-59.343" transform="scale(1,-1)"/><rect style="display:inline;fill:#000;fill-opacity:1;fill-rule:evenodd;stroke-width:0;stroke-dasharray:none" id="rect1-8-5-0" width="4" height="21.948" x="85.052" y="-59.343" transform="scale(1,-1)"/><rect style="fill:#000;fill-opacity:1;fill-rule:evenodd;stroke-width:.374177" id="rect1-3" width="4" height="45" x="24.926" y="-110.491" transform="scale(1,-1)"/><rect style="fill:#000;fill-opacity:1;fill-rule:evenodd;stroke-width:.374177" id="rect1-8-1" width="4" height="45" x="49.428" y="-110.491" transform="scale(1,-1)"/><rect style="fill:#000;fill-opacity:1;fill-rule:evenodd;stroke-width:.374177" id="rect1" width="4" height="45" x="24.926" y="-59.344" transform="scale(1,-1)"/><rect style="fill:#000;fill-opacity:1;fill-rule:evenodd;stroke-width:1.78898;stroke-dasharray:none" id="rect1-8" width="4" height="45" x="49.428" y="-59.343" transform="scale(1,-1)"/><rect style="display:inline;fill:#000;fill-opacity:1;fill-rule:evenodd;stroke-width:.586293" id="rect1-8-5-3" width="4" height="12.5" x="72.786" y="50.917" transform="matrix(0,1,1,0,0,0)"/><path id="rect3-1-9" style="display:inline;mix-blend-mode:lighten;fill:#fff;fill-opacity:1;stroke:#000;stroke-width:3.99985;stroke-dasharray:none" d="M 70.277673,108.49132 H 62.605125 V 67.491121 h 7.672548"/><rect style="display:inline;fill:#000;fill-opacity:1;fill-rule:evenodd;stroke-width:.587484" id="rect1-8-5-0-8" width="4" height="12.551" x="98.962" y="50.892" transform="matrix(0,1,1,0,0,0)"/><path style="display:inline;mix-blend-mode:lighten;fill:#fff;fill-opacity:1;stroke:#000;stroke-width:3.9999;stroke-dasharray:none;stroke-opacity:1" id="path2-6-1" d="M 67.491142,-70.274841 A 20.501274,16.826368 0 0 1 87.992416,-87.10121 20.501274,16.826368 0 0 1 108.49369,-70.274841" transform="rotate(90)"/><circle style="display:inline;mix-blend-mode:lighten;fill:#fff;fill-opacity:1;stroke:#000;stroke-width:3;stroke-dasharray:none;stroke-opacity:1" id="path1-8" cx="74.855" cy="9.697" r="4"/><path id="rect3-1" style="display:inline;mix-blend-mode:lighten;fill:#fff;fill-opacity:1;stroke:#000;stroke-width:4;stroke-dasharray:none" d="M 87.058335,25.113543 V 37.333334 H 62.651091 V 25.113543"/><path style="display:inline;mix-blend-mode:lighten;fill:#fff;fill-opacity:1;stroke:#000;stroke-width:4.00007;stroke-dasharray:none;stroke-opacity:1" id="path2-6" d="m 62.65113,25.175447 a 12.203576,9.7774382 0 0 1 12.203576,-9.777438 12.203576,9.7774382 0 0 1 12.203576,9.777438"/><rect style="fill:#000;fill-opacity:1;fill-rule:evenodd;stroke-width:.392519" id="rect1-5" width="3.927" height="48.843" x="14.528" y="-77.564" transform="matrix(0.8120612,-0.58357229,-0.48522007,-0.87439207,0,0)"/><rect style="fill:#000;fill-opacity:1;fill-rule:evenodd;stroke-width:.39239" id="rect1-5-5" width="3.925" height="48.835" x="-10.438" y="-119.373" transform="matrix(0.81185877,-0.58385387,-0.48494863,-0.87454264,0,0)"/></g></svg>