<svg viewBox="4.30 -1127.89 734.94 1117.89" height="20">
    <g transform="scale(1,-1)" fill="currentColor">
        <path d="M224 1110 c-117 -38 -191 -131 -215 -269 -14 -76 3 -120 55 -145 71
        -33 137 12 151 101 15 103 68 153 162 153 87 0 143 -57 143 -145 0 -54 -23
        -88 -105 -159 -42 -35 -84 -74 -94 -87 -25 -32 -41 -92 -41 -156 l0 -53 94 0
        93 0 12 60 c11 55 17 63 69 107 171 145 198 189 190 325 -6 130 -66 209 -196
        259 -83 32 -236 36 -318 9z"/>
        <path d="M324 271 c-32 -14 -72 -68 -80 -106 -13 -70 59 -155 133 -155 124 0
        183 149 94 234 -23 22 -42 30 -78 32 -26 2 -57 0 -69 -5z"/>
    </g>
</svg>
